<?xml version="1.0" standalone="no"?>
<!DOCTYPE svg PUBLIC "-//W3C//DTD SVG 20010904//EN"
 "http://www.w3.org/TR/2001/REC-SVG-20010904/DTD/svg10.dtd">
<svg version="1.0" xmlns="http://www.w3.org/2000/svg"
 width="606.000000pt" height="412.000000pt" viewBox="0 0 606.000000 412.000000"
 preserveAspectRatio="xMidYMid meet">

<g transform="translate(0.000000,412.000000) scale(0.100000,-0.100000)"
fill="#FF2D87" stroke="none">
<path d="M215 2894 c-14 -15 -27 -44 -30 -67 -3 -23 -5 -433 -3 -910 l3 -869
33 -29 32 -29 2785 0 c2137 0 2790 3 2810 12 57 26 55 -10 55 962 l0 894 -29
31 -29 31 -2801 0 -2802 0 -24 -26z m1173 -143 c67 -40 114 -82 146 -134 9
-15 29 -33 43 -40 15 -6 38 -22 52 -35 14 -12 43 -37 64 -55 24 -21 39 -44 44
-66 5 -28 3 -33 -9 -28 -23 8 -59 -21 -56 -46 4 -27 -14 -29 -70 -5 -48 20
-56 13 -50 -38 5 -41 46 -66 107 -66 46 0 51 -2 51 -23 0 -12 9 -30 20 -40 11
-10 18 -20 16 -22 -2 -2 -32 5 -67 16 -91 28 -112 31 -128 21 -12 -7 -10 -14
11 -38 47 -57 130 -123 145 -118 8 3 46 30 84 58 l69 53 -6 51 c-4 33 -2 54 5
58 20 12 12 25 -24 40 -72 31 -28 81 109 125 99 32 182 76 208 111 28 38 57
36 77 -5 30 -63 40 -224 17 -279 -17 -40 -35 -45 -74 -18 -28 19 -123 52 -149
52 -12 0 -14 -12 -12 -57 4 -72 -9 -97 -51 -99 -36 -2 -50 -16 -135 -129 -29
-38 -66 -83 -83 -98 l-29 -28 -55 30 c-31 16 -77 43 -104 60 l-49 30 -21 -20
c-28 -26 -35 -52 -44 -169 -8 -105 -9 -110 -39 -192 -36 -94 -116 -175 -215
-217 -49 -21 -225 -46 -261 -37 -13 3 -34 2 -47 -3 -29 -11 -94 -104 -116
-167 -16 -42 -23 -50 -62 -64 -25 -9 -53 -20 -63 -25 -10 -4 -20 -5 -23 -2 -9
9 11 60 27 68 8 4 26 13 42 20 15 7 30 23 33 35 3 13 14 26 24 29 9 3 25 22
35 43 70 143 65 137 125 157 52 17 73 34 62 51 -4 6 -43 30 -87 54 -44 23 -90
52 -102 63 l-22 20 -63 -23 c-35 -12 -76 -32 -93 -44 -50 -36 -85 -48 -101
-35 -8 6 -20 9 -29 6 -8 -4 -17 -2 -20 4 -4 5 -11 7 -16 4 -5 -4 -12 1 -16 11
-4 11 2 22 17 34 20 15 26 16 51 3 25 -13 33 -13 61 1 17 9 36 16 43 16 11 0
92 40 152 76 28 16 37 17 77 6 68 -18 129 -15 154 7 12 10 22 22 22 26 0 4 18
27 40 52 36 42 61 105 46 120 -3 3 -1 12 5 20 29 35 -21 196 -66 213 -11 4
-63 10 -116 14 -93 7 -97 6 -115 -16 -11 -13 -35 -33 -54 -45 -54 -33 -81 -65
-70 -83 14 -21 12 -30 -4 -30 -8 0 -21 -9 -29 -21 -27 -38 -71 8 -59 62 1 9
15 19 30 22 17 4 37 21 52 44 40 60 43 64 89 109 24 24 47 41 52 38 5 -3 48
13 95 35 47 23 89 41 93 41 5 0 14 7 21 15 7 9 19 14 26 11 7 -3 16 -1 19 4 3
5 30 14 61 20 46 10 65 21 118 71 35 32 67 59 72 59 5 0 16 17 25 39 20 46 10
72 -55 140 l-41 44 39 -6 c21 -3 55 -15 76 -26 35 -18 50 -18 50 0 0 4 -18 30
-40 58 -60 75 -56 77 38 22z m-93 -21 c-3 -5 -12 -10 -18 -10 -7 0 -6 4 3 10
19 12 23 12 15 0z m2300 -132 c22 -46 40 -85 41 -88 0 -3 8 -23 18 -45 57
-125 82 -173 88 -169 3 2 5 -4 3 -13 -1 -10 3 -27 10 -38 7 -11 27 -54 45 -95
39 -90 57 -111 98 -112 65 -2 64 -7 60 334 -2 212 0 308 8 308 5 0 19 -6 30
-14 15 -11 22 -12 34 -3 13 10 13 10 2 -5 -12 -14 -9 -20 20 -45 18 -15 54
-48 79 -73 26 -25 100 -96 165 -159 l119 -113 3 153 c1 85 0 164 -3 177 -3 14
-18 27 -36 34 -16 6 -28 15 -26 22 5 16 289 15 294 -1 3 -7 -7 -15 -22 -19
-14 -3 -30 -14 -35 -24 -6 -10 -8 -143 -7 -319 l3 -301 -32 3 c-18 1 -30 7
-27 13 2 6 -18 31 -46 55 -27 24 -116 108 -197 187 -105 102 -150 139 -155
130 -5 -7 -9 -76 -9 -153 0 -151 9 -188 48 -193 32 -5 28 -32 -5 -33 -97 -3
-485 -4 -520 0 -46 4 -59 25 -23 36 24 8 24 23 2 90 l-17 50 -103 0 -104 0
-15 -40 c-27 -71 -27 -92 -4 -100 23 -7 29 -34 9 -36 -25 -1 -154 -2 -180 0
-35 1 -37 27 -4 35 33 8 58 35 51 54 -3 9 -3 13 1 9 11 -10 31 24 58 95 13 35
47 112 76 172 28 59 52 117 53 127 1 10 4 19 8 19 3 0 12 18 19 40 7 22 16 40
19 40 4 0 13 20 20 45 20 68 39 60 86 -37z m-430 46 c22 -11 54 -42 73 -69 28
-42 33 -57 31 -100 -3 -68 -22 -112 -67 -152 -61 -55 -156 -68 -230 -30 l-32
15 3 -113 c1 -64 6 -111 11 -107 5 3 6 0 3 -6 -11 -17 3 -40 29 -46 35 -9 31
-36 -6 -36 -16 -1 -79 -1 -140 -1 -60 0 -114 0 -120 1 -14 0 -12 30 2 30 6 0
20 7 30 17 17 15 18 38 18 295 l0 279 -30 10 c-30 11 -36 20 -22 33 4 4 97 6
207 4 179 -3 204 -5 240 -24z m-358 -876 c63 -18 113 -87 114 -159 2 -57 -9
-120 -20 -129 -4 -3 -15 -16 -24 -29 -22 -32 -77 -53 -156 -58 -52 -4 -73 -1
-110 17 -61 30 -89 56 -96 91 -4 16 -10 27 -14 25 -3 -2 -3 30 1 72 11 104 11
103 16 98 2 -3 18 10 36 28 60 62 138 76 253 44z m932 6 c11 -4 11 -7 -2 -22
-12 -13 -16 -42 -16 -122 -1 -143 -17 -190 -76 -220 -58 -30 -156 -25 -205 10
-49 35 -60 73 -60 205 0 94 -3 117 -15 121 -8 4 -15 12 -15 19 0 18 156 21
163 2 3 -7 -4 -19 -14 -25 -17 -11 -19 -25 -19 -125 0 -123 10 -156 51 -171
38 -13 92 0 109 27 9 15 15 61 18 144 4 106 2 124 -12 129 -9 3 -16 12 -16 19
0 20 59 25 109 9z m347 -6 c38 -13 39 -14 39 -63 0 -59 -23 -74 -41 -26 -7 18
-25 35 -48 46 -80 38 -155 -21 -157 -121 0 -72 6 -100 33 -133 21 -26 78 -48
78 -30 0 4 9 5 19 2 30 -8 68 25 87 73 19 49 37 53 42 9 8 -65 -5 -90 -58
-113 -60 -26 -156 -30 -186 -7 -10 8 -29 15 -42 15 -12 0 -25 7 -28 15 -4 8
-10 12 -15 9 -5 -3 -8 -2 -7 3 1 4 -5 22 -14 39 -19 35 -25 112 -14 164 4 19
24 51 43 72 23 24 33 41 27 50 -6 10 -5 11 8 1 8 -7 18 -10 21 -6 22 21 149
22 213 1z m404 1 c6 -8 9 -8 14 0 9 14 162 15 171 1 3 -5 -3 -15 -15 -22 -19
-12 -20 -23 -20 -164 0 -146 1 -152 21 -157 46 -12 4 -27 -75 -27 -66 0 -83 3
-83 15 0 8 9 17 19 21 17 5 18 17 16 157 -3 144 -4 152 -23 152 -15 0 -20 -7
-20 -27 -1 -38 -10 -43 -28 -15 -12 19 -24 24 -54 23 l-38 -1 0 -140 c0 -121
2 -141 17 -154 10 -9 18 -19 18 -23 0 -5 -38 -8 -85 -8 -66 0 -85 3 -85 14 0
8 7 16 15 20 12 4 15 31 15 151 l0 146 -37 -3 c-28 -3 -41 -10 -48 -26 -5 -12
-15 -22 -21 -22 -14 0 -26 42 -19 64 3 9 7 22 9 29 5 17 326 14 336 -4z m527
-11 c40 -19 80 -54 76 -67 -5 -11 8 -41 15 -37 4 2 8 -17 10 -44 3 -50 -26
-139 -55 -168 -44 -44 -205 -68 -249 -37 -12 8 -24 11 -28 8 -3 -3 -6 -1 -6 6
0 7 -4 10 -9 7 -12 -8 -48 33 -66 76 -21 52 -19 124 7 178 12 25 20 49 19 53
-1 5 3 6 7 3 5 -3 19 3 32 14 12 10 43 22 68 25 26 4 52 8 57 10 18 6 79 -7
122 -27z m-2961 2 c49 -24 66 -57 62 -122 -2 -26 -5 -45 -7 -43 -2 2 -19 -8
-38 -22 -35 -27 -68 -32 -116 -19 l-29 9 3 -54 c3 -66 7 -79 25 -79 8 0 14 -7
14 -15 0 -12 -16 -15 -85 -15 -83 0 -103 9 -67 29 15 8 17 29 20 151 4 133 3
143 -17 164 -12 12 -18 26 -14 29 3 4 51 7 107 7 80 0 108 -4 142 -20z m333 4
c42 -17 65 -54 63 -106 -1 -30 -26 -74 -48 -82 -19 -7 67 -129 104 -145 19 -9
22 -15 13 -24 -17 -17 -95 -10 -140 12 -21 11 -42 17 -45 13 -4 -3 -4 1 -1 10
7 17 -39 118 -53 118 -5 0 -8 -27 -8 -61 1 -47 5 -63 19 -70 33 -19 6 -29 -74
-29 -64 0 -79 3 -79 15 0 8 6 15 14 15 12 0 14 29 15 154 2 135 0 156 -15 164
-9 5 -14 14 -10 21 11 18 197 14 245 -5z m824 0 c26 -9 47 -21 47 -27 0 -6 3
-8 6 -4 4 3 12 0 19 -6 28 -28 48 -84 50 -141 2 -53 -1 -67 -27 -107 -43 -64
-90 -79 -247 -79 -97 0 -121 3 -121 14 0 8 7 16 15 20 12 4 15 31 15 155 0
129 -2 151 -16 159 -9 5 -14 14 -10 21 11 18 213 14 269 -5z m2081 -89 c59
-58 110 -105 114 -105 5 0 9 34 10 76 1 67 -1 78 -22 99 -19 19 -21 25 -9 29
23 9 151 7 157 -3 3 -4 -4 -17 -15 -27 -20 -18 -21 -27 -17 -183 2 -109 -1
-166 -7 -168 -6 -2 -40 24 -75 58 -36 33 -86 81 -111 105 -26 24 -50 44 -53
44 -3 0 -6 -38 -6 -85 0 -69 3 -85 15 -85 8 0 15 -7 15 -15 0 -13 -14 -15 -82
-13 -78 3 -114 19 -68 31 19 5 20 12 20 176 0 136 3 171 13 171 8 0 62 -47
121 -105z"/>
<path d="M1494 2560 c-24 -10 -39 -70 -20 -83 26 -17 57 -18 81 -3 32 21 33
59 3 80 -25 18 -34 19 -64 6z m39 -77 c-7 -2 -19 -2 -25 0 -7 3 -2 5 12 5 14
0 19 -2 13 -5z"/>
<path d="M3496 2402 c-4 -7 -4 -18 0 -24 4 -7 4 -10 -1 -6 -9 8 -28 -24 -38
-64 -4 -14 -10 -33 -13 -42 -5 -14 3 -16 56 -16 59 0 61 1 54 23 -4 12 -11 25
-16 28 -7 4 -7 8 0 10 5 2 0 25 -12 54 -14 31 -25 45 -30 37z"/>
<path d="M2949 2598 c0 -2 -2 -60 -5 -130 -5 -140 -7 -136 55 -118 31 9 83 50
64 50 -4 0 -1 5 7 10 10 6 15 28 17 68 1 54 -1 62 -29 91 -24 24 -39 31 -69
31 -22 0 -39 -1 -40 -2z"/>
<path d="M2675 1725 c-34 -18 -57 -44 -50 -56 3 -4 1 -10 -5 -14 -5 -3 -10
-30 -10 -59 0 -85 29 -151 68 -154 91 -8 119 15 130 111 16 130 -50 215 -133
172z"/>
<path d="M4863 1726 c-86 -41 -81 -263 7 -285 70 -17 111 16 131 104 27 121
-51 223 -138 181z"/>
<path d="M1937 1724 c-13 -13 -8 -104 6 -104 9 0 8 -3 -2 -9 -10 -6 -10 -10
-1 -16 7 -4 24 1 38 13 22 16 27 27 26 61 0 23 -3 43 -5 45 -9 9 -55 17 -62
10z"/>
<path d="M2275 1708 c-8 -36 0 -103 13 -102 7 1 19 2 27 3 30 3 36 86 7 109
-24 18 -41 15 -47 -10z"/>
<path d="M3071 1585 l1 -145 36 0 c84 0 125 55 118 156 -2 34 -11 72 -20 87
-19 28 -62 47 -108 47 l-29 0 2 -145z"/>
</g>
</svg>
